<svg xmlns="http://www.w3.org/2000/svg" width="16" height="16" xmlns:v="https://vecta.io/nano"><path d="M3.473 15.931c-.599-.104-1.092-.488-1.425-1.11l-.149-.279V8.203 1.864l.19-.388A2.48 2.48 0 0 1 4.086.062c.327-.044 2.86-.02 4.737.002l2.737-.011.475.114c.317.046.993.489 1.286.898.501.699.485.456.463 7.342l-.02 6.136-.153.286c-.24.449-.536.743-.953.948l-.385.189-4.237.011c-2.331.006-4.383-.015-4.561-.045zm-.398-2.77c.626-.442 1.725-.827 2.824-.99.988-.147 2.974-.145 3.909.003 1.088.172 2.168.556 2.779.987a.89.89 0 0 0 .22.127c.022 0 .04-2.503.04-5.561 0-6.08.016-5.827-.393-6.258A2.17 2.17 0 0 0 12 1.13c-.268-.146-.304-.147-4.169-.147l-4.169.146a2.17 2.17 0 0 0-.454.339c-.409.431-.393.178-.393 6.258l.04 5.562a.89.89 0 0 0 .22-.127zm4.007-2.302c-1.122-.293-1.977-1.248-2.177-2.431-.322-1.904 1.482-3.692 3.384-3.354 1.269.226 2.238 1.195 2.467 2.467.264 1.466-.761 2.985-2.251 3.336a2.5 2.5 0 0 1-1.423-.019z" fill="#fff" stroke="#1c2422" stroke-width=".068"/></svg>