<svg xmlns="http://www.w3.org/2000/svg" width="10" height="10"><path fill="#0067F6" d="M7.95 5.898a2.05 2.05 0 0 0-1.684.882L3.997 5.646a2.043 2.043 0 0 0 0-1.292L6.266 3.22a2.05 2.05 0 1 0-.263-.523L3.734 3.83a2.05 2.05 0 1 0 0 2.338l2.269 1.134A2.053 2.053 0 0 0 7.95 10C9.08 10 10 9.08 10 7.95c0-1.132-.92-2.052-2.05-2.052zm0-5.312c.807 0 1.464.657 1.464 1.465 0 .807-.657 1.465-1.465 1.465A1.467 1.467 0 0 1 6.484 2.05c0-.808.658-1.465 1.465-1.465zm-5.9 5.879A1.467 1.467 0 0 1 .587 5c0-.808.657-1.465 1.465-1.465.807 0 1.465.657 1.465 1.465S2.858 6.465 2.05 6.465zm5.9 2.95a1.467 1.467 0 0 1-1.466-1.466c0-.807.658-1.465 1.465-1.465.808 0 1.465.658 1.465 1.465 0 .808-.657 1.465-1.465 1.465z"/></svg>