<svg xmlns="http://www.w3.org/2000/svg" width="24" height="24" xmlns:v="https://vecta.io/nano"><g clip-path="url(#A)"><path d="M23.954 4.382a9.81 9.81 0 0 1-2.825.795c1.014-.626 1.794-1.614 2.163-2.792a10.01 10.01 0 0 1-3.127 1.214C19.269 2.615 17.992 2 16.574 2c-2.717 0-4.92 2.259-4.92 5.041a5.28 5.28 0 0 0 .127 1.152C7.691 7.995 4.066 5.981 1.64 2.937a5.04 5.04 0 0 0-.666 2.538 5.08 5.08 0 0 0 2.188 4.2 4.81 4.81 0 0 1-2.228-.632v.063c0 2.445 1.693 4.485 3.946 4.949a4.88 4.88 0 0 1-1.296.175 4.88 4.88 0 0 1-.916-.088c.631 2.002 2.445 3.462 4.604 3.503-1.68 1.352-3.809 2.158-6.102 2.158A10.19 10.19 0 0 1 0 19.735C2.189 21.164 4.768 22 7.557 22c9.054 0 13.999-7.685 13.999-14.339 0-.214 0-.431-.015-.646a10.08 10.08 0 0 0 2.46-2.612l-.047-.021z" fill="#fff"/></g><defs><clipPath id="A"><path fill="#fff" d="M0 0h24v24H0z"/></clipPath></defs></svg>