<svg xmlns="http://www.w3.org/2000/svg" width="180" height="180" viewBox="0 0 135 135"><path d="M65 .6a42 42 0 0 0-5 2.5l-7 4-8.2 4.8-8 4.7-8 4.7-5.2 3-8 4.7-6.3 4C8 34 8 33.5 8 45.6V100l.5.8c1 2 1.3 2.2 8 6L22 110l3 1.8 7 4L64 134c1.5.8 2.6 1 4 .7a62 62 0 0 0 10.2-5.4l3.6-2 5.6-3.2 24.7-14.2 6.4-3.7c4.8-2.8 6-3.7 7-5.6l.6-1V72l-.6-.5c-.4-.4-.7-.5-1-.4-.6.2-4.5 2.3-7.2 4-2 1.2-2.5 1.6-2.6 2a125 125 0 0 0-.3 8.1c-.2 8.5-.2 8.4-1.4 10-1 1.2-2 2-13.6 8.5l-4 2.3-20 11.4c-7 3.8-7 4-8.3 4-1 0-1.3-.1-3-1-7.2-3.7-36.8-21-41.4-24-2.3-1.6-2.5-2-2.8-5.7v-46c.2-3 .5-3.8 1.6-4.8a257 257 0 0 1 16.6-10.1l4-2.2 21.9-13c1-.5 1.5-.6 2.4-.7 1-.1 1.3 0 2.8.7l12.3 6.8 4 2.3 3.2 1.8 3.3 2 3.5 2L100 32c11.7 6.8 12.3 7.2 13.4 9.4l.5 1v9.3l.1 11.2c.1 1.7.2 2 .6 2.3.3.2.6.4.8.4a68 68 0 0 0 7.6-4.1c2-1.3 2.3-1.4 2.5-2 .2-1 .2-22.4 0-23.8-.4-2-1.5-3.2-5-5.3L106 21.8l-10.4-6-5-3-5.5-3L79 6.4l-7-4-3.6-2H67c-1 0-1.6 0-2 .3z"/><path d="M65 24.4c-1.5.4-4.2 2-20.6 11.4l-16.3 9.8-.7.6v16c.1 15 .1 16 .4 16.4.4.7 1 .6 3-.4l7.5-4.2.4-.3.1-9.2c.1-8.7.2-10.8.7-11.5.2-.5 1.2-1.4 2-2a667 667 0 0 1 10-5.9l4-2.2 4.4-2.5 3.6-2c1-.5 1-.5 2.8-.5 2.2 0 2.2 0 7 2.7l18.6 10.8 1.7 1 .1 15.7-.1 15.8c-.1.1-.8-.2-1.6-.7l-9.2-5.3-5.4-3c-8.4-4.8-9.4-5.3-11.3-5.2-1 .1-1.5.2-3.4 1.2a294 294 0 0 0-9.6 5.4l-20.9 12c-1 .6-1.3 1.3-1.3 2.5 0 1.6.1 1.7 5.5 5l15.2 8.8 9.3 5.2 4.4 2c2 .3 4-.4 8-3 2.2-1.5 3-2.2 3-2.7s-1-1.4-3-2.5A327.5 327.5 0 0 0 63 97.8l-9.7-6c-1.4-1.4-.6-2.3 5-5.5l7-3.4c.5-.1 1.3-.2 2-.1 1.6.1 2.6.7 18 9.6l8.5 4.5a69 69 0 0 0 9.7-5.4c1-.6 1.4-1 1.6-1.5.2-.5.3-2.8.3-22.2V46.2l-.8-.6A204 204 0 0 0 94 39.2l-5.8-3.4-20.6-11.4a4 4 0 0 0-2.6 0z" fill="teal"/></svg>