<?xml version="1.0" standalone="no"?>
<!DOCTYPE svg PUBLIC "-//W3C//DTD SVG 20010904//EN"
 "http://www.w3.org/TR/2001/REC-SVG-20010904/DTD/svg10.dtd">
<svg version="1.0" xmlns="http://www.w3.org/2000/svg"
 width="700.000000pt" height="700.000000pt" viewBox="0 0 700.000000 700.000000"
 preserveAspectRatio="xMidYMid meet">
<metadata>
Created by potrace 1.14, written by Peter Selinger 2001-2017
</metadata>
<g transform="translate(0.000000,700.000000) scale(0.100000,-0.100000)"
fill="#000000" stroke="none">
<path d="M0 3500 l0 -3500 3500 0 3500 0 0 3500 0 3500 -3500 0 -3500 0 0
-3500z m3810 2744 c151 -86 365 -206 475 -266 110 -61 274 -154 365 -208 91
-54 264 -155 385 -225 463 -268 830 -491 875 -532 89 -80 85 -50 88 -620 2
-276 -1 -516 -5 -533 -7 -27 -26 -43 -115 -99 -163 -102 -316 -177 -336 -164
-40 25 -42 42 -42 521 l0 463 -25 48 c-52 104 -94 132 -805 539 -96 55 -258
148 -360 207 -102 59 -320 181 -485 273 -271 150 -305 166 -357 170 -31 2 -71
0 -88 -6 -17 -6 -250 -141 -518 -300 -268 -159 -539 -317 -602 -352 -184 -101
-391 -224 -590 -351 -157 -100 -189 -124 -210 -161 l-25 -43 0 -1110 c0 -1302
-17 -1151 141 -1256 191 -128 1444 -856 1719 -999 140 -73 177 -82 232 -58
110 48 1759 988 1853 1056 38 29 77 67 94 96 l30 48 8 236 c5 131 11 293 14
360 l6 124 83 54 c80 52 333 194 346 194 4 0 18 -9 33 -21 l26 -20 0 -598 0
-597 -35 -56 c-42 -66 -95 -108 -275 -215 -132 -78 -1555 -897 -1675 -963 -33
-18 -103 -59 -155 -91 -52 -32 -158 -88 -235 -126 -162 -78 -204 -84 -290 -40
-72 36 -1720 976 -2030 1157 -314 184 -343 205 -378 269 l-27 49 2 1419 c3
1295 4 1421 19 1444 23 35 270 188 859 532 278 162 647 377 820 479 702 411
735 427 845 428 l70 0 275 -156z m131 -1110 c477 -265 881 -498 1074 -618
l130 -81 0 -958 0 -958 -25 -19 c-42 -33 -229 -145 -342 -205 l-108 -57 -152
83 c-84 45 -322 177 -528 293 -206 115 -398 216 -426 224 -75 21 -126 9 -273
-63 -310 -153 -430 -240 -402 -293 19 -36 305 -215 714 -447 234 -133 297
-176 297 -201 0 -8 -27 -35 -61 -62 -142 -110 -315 -191 -383 -178 -57 11
-357 168 -756 398 -708 407 -745 432 -743 505 1 46 17 74 51 94 423 252 1226
712 1329 761 95 46 146 55 208 38 53 -15 284 -139 761 -411 252 -143 339 -188
348 -179 12 12 22 1141 11 1286 l-7 81 -81 48 c-287 168 -912 523 -964 548
-58 27 -70 29 -151 25 l-87 -4 -265 -151 c-675 -384 -761 -438 -797 -507 -15
-29 -29 -311 -36 -735 l-2 -155 -46 -27 c-153 -89 -348 -189 -370 -189 -16 0
-30 7 -34 18 -15 36 -25 612 -18 997 l8 399 310 187 c347 208 703 415 1026
597 195 110 285 149 345 151 11 1 211 -105 445 -235z"/>
</g>
</svg>
